<?xml version="1.0" encoding="utf-8"?>
<!-- Generator: Adobe Illustrator 16.0.0, SVG Export Plug-In . SVG Version: 6.00 Build 0)  -->
<!DOCTYPE svg PUBLIC "-//W3C//DTD SVG 1.1//EN" "http://www.w3.org/Graphics/SVG/1.1/DTD/svg11.dtd">
<svg version="1.1" id="icons" xmlns="http://www.w3.org/2000/svg" xmlns:xlink="http://www.w3.org/1999/xlink" x="0px" y="0px"
	 width="64px" height="64px" viewBox="0 0 64 64" enable-background="new 0 0 64 64" xml:space="preserve">
<g>
	<g>
		<path fill="#E6E9ED" d="M32,27c8.84,0,16,7.17,16,16c0,8.84-7.16,16-16,16c-8.83,0-16-7.16-16-16C16,34.17,23.17,27,32,27z"/>
	</g>
</g>
<g>
	<g>
		<g>
			<path d="M32,64c-11.579,0-21-9.421-21-21c0-0.553,0.447-1,1-1s1,0.447,1,1c0,10.477,8.523,19,19,19s19-8.523,19-19
				c0-0.553,0.447-1,1-1s1,0.447,1,1C53,54.579,43.579,64,32,64z"/>
		</g>
	</g>
	<g>
		<path d="M31.998,60c-9.374,0-17-7.626-17-17s7.626-17,17-17s17.001,7.626,17.001,17S41.372,60,31.998,60z M31.998,28
			c-8.271,0-15,6.729-15,15s6.729,15,15,15s15.001-6.729,15.001-15S40.27,28,31.998,28z"/>
	</g>
	<g>
		<path d="M12,44c-0.553,0-1-0.447-1-1V7.006c0-0.553,0.447-1,1-1s1,0.447,1,1V43C13,43.553,12.553,44,12,44z"/>
	</g>
	<g>
		<path d="M52,44c-0.553,0-1-0.447-1-1V8c0-0.553,0.447-1,1-1s1,0.447,1,1v35C53,43.553,52.553,44,52,44z"/>
	</g>
	<g>
		<path d="M47.999,30.986c-0.553,0-1-0.447-1-1V1c0-0.553,0.447-1,1-1s1,0.447,1,1v28.986
			C48.999,30.539,48.552,30.986,47.999,30.986z"/>
	</g>
	<g>
		<path d="M43.998,24.98c-0.553,0-1-0.447-1-1V9c0-0.553,0.447-1,1-1s1,0.447,1,1v14.98C44.998,24.533,44.551,24.98,43.998,24.98z"
			/>
	</g>
	<g>
		<path d="M39.997,24.98c-0.553,0-1-0.447-1-1V3.996c0-0.553,0.447-1,1-1s1,0.447,1,1V23.98C40.997,24.533,40.55,24.98,39.997,24.98
			z"/>
	</g>
	<g>
		<path d="M35.996,17.975c-0.553,0-1-0.447-1-1V6.998c0-0.553,0.447-1,1-1s1,0.447,1,1v9.977
			C36.996,17.527,36.549,17.975,35.996,17.975z"/>
	</g>
	<g>
		<path d="M31.995,23.98c-0.553,0-1-0.447-1-1V1.994c0-0.553,0.447-1,1-1s1,0.447,1,1V22.98
			C32.995,23.533,32.548,23.98,31.995,23.98z"/>
	</g>
	<g>
		<path d="M27.994,19.977c-0.553,0-1-0.447-1-1V9c0-0.553,0.447-1,1-1s1,0.447,1,1v9.977C28.994,19.529,28.547,19.977,27.994,19.977
			z"/>
	</g>
	<g>
		<path d="M23.993,23.98c-0.553,0-1-0.447-1-1V1c0-0.553,0.447-1,1-1s1,0.447,1,1v21.98C24.993,23.533,24.546,23.98,23.993,23.98z"
			/>
	</g>
	<g>
		<path d="M19.992,26.982c-0.553,0-1-0.447-1-1v-15.98c0-0.553,0.447-1,1-1s1,0.447,1,1v15.98
			C20.992,26.535,20.545,26.982,19.992,26.982z"/>
	</g>
	<g>
		<path d="M15.991,30.986c-0.553,0-1-0.447-1-1v-15.98c0-0.553,0.447-1,1-1s1,0.447,1,1v15.98
			C16.991,30.539,16.544,30.986,15.991,30.986z"/>
	</g>
	<g>
		<g>
			<path d="M20.03,51.998c-0.553,0-1.005-0.447-1.005-1s0.442-1,0.994-1h0.011c0.552,0,1,0.447,1,1S20.582,51.998,20.03,51.998z"/>
		</g>
		<g>
			<path d="M24.03,55.999c-0.553,0-1.005-0.447-1.005-1s0.442-1,0.994-1h0.011c0.552,0,1,0.447,1,1S24.582,55.999,24.03,55.999z"/>
		</g>
		<g>
			<path d="M20.03,43.998c-0.553,0-1.005-0.447-1.005-1s0.442-1,0.994-1h0.011c0.552,0,1,0.447,1,1S20.582,43.998,20.03,43.998z"/>
		</g>
		<g>
			<path d="M24.03,47.998c-0.553,0-1.005-0.447-1.005-1s0.442-1,0.994-1h0.011c0.552,0,1,0.447,1,1S24.582,47.998,24.03,47.998z"/>
		</g>
		<g>
			<path d="M28.03,51.998c-0.553,0-1.005-0.447-1.005-1s0.442-1,0.994-1h0.011c0.552,0,1,0.447,1,1S28.582,51.998,28.03,51.998z"/>
		</g>
		<g>
			<path d="M32.03,55.999c-0.553,0-1.005-0.447-1.005-1s0.442-1,0.994-1h0.011c0.552,0,1,0.447,1,1S32.582,55.999,32.03,55.999z"/>
		</g>
		<g>
			<path d="M20.03,35.998c-0.553,0-1.005-0.447-1.005-1s0.442-1,0.994-1h0.011c0.552,0,1,0.447,1,1S20.582,35.998,20.03,35.998z"/>
		</g>
		<g>
			<path d="M24.03,39.998c-0.553,0-1.005-0.447-1.005-1s0.442-1,0.994-1h0.011c0.552,0,1,0.447,1,1S24.582,39.998,24.03,39.998z"/>
		</g>
		<g>
			<path d="M28.03,43.998c-0.553,0-1.005-0.447-1.005-1s0.442-1,0.994-1h0.011c0.552,0,1,0.447,1,1S28.582,43.998,28.03,43.998z"/>
		</g>
		<g>
			<path d="M32.03,47.998c-0.553,0-1.005-0.447-1.005-1s0.442-1,0.994-1h0.011c0.552,0,1,0.447,1,1S32.582,47.998,32.03,47.998z"/>
		</g>
		<g>
			<path d="M36.03,51.998c-0.553,0-1.005-0.447-1.005-1s0.442-1,0.994-1h0.011c0.552,0,1,0.447,1,1S36.582,51.998,36.03,51.998z"/>
		</g>
		<g>
			<path d="M40.03,55.999c-0.553,0-1.005-0.447-1.005-1s0.442-1,0.994-1h0.011c0.552,0,1,0.447,1,1S40.582,55.999,40.03,55.999z"/>
		</g>
		<g>
			<path d="M24.03,31.998c-0.553,0-1.005-0.447-1.005-1s0.442-1,0.994-1h0.011c0.552,0,1,0.447,1,1S24.582,31.998,24.03,31.998z"/>
		</g>
		<g>
			<path d="M28.03,35.998c-0.553,0-1.005-0.447-1.005-1s0.442-1,0.994-1h0.011c0.552,0,1,0.447,1,1S28.582,35.998,28.03,35.998z"/>
		</g>
		<g>
			<path d="M32.03,39.998c-0.553,0-1.005-0.447-1.005-1s0.442-1,0.994-1h0.011c0.552,0,1,0.447,1,1S32.582,39.998,32.03,39.998z"/>
		</g>
		<g>
			<path d="M36.03,43.998c-0.553,0-1.005-0.447-1.005-1s0.442-1,0.994-1h0.011c0.552,0,1,0.447,1,1S36.582,43.998,36.03,43.998z"/>
		</g>
		<g>
			<path d="M40.03,47.998c-0.553,0-1.005-0.447-1.005-1s0.442-1,0.994-1h0.011c0.552,0,1,0.447,1,1S40.582,47.998,40.03,47.998z"/>
		</g>
		<g>
			<path d="M44.03,51.998c-0.553,0-1.005-0.447-1.005-1s0.442-1,0.994-1h0.011c0.552,0,1,0.447,1,1S44.582,51.998,44.03,51.998z"/>
		</g>
		<g>
			<path d="M32.03,31.998c-0.553,0-1.005-0.447-1.005-1s0.442-1,0.994-1h0.011c0.552,0,1,0.447,1,1S32.582,31.998,32.03,31.998z"/>
		</g>
		<g>
			<path d="M36.03,35.998c-0.553,0-1.005-0.447-1.005-1s0.442-1,0.994-1h0.011c0.552,0,1,0.447,1,1S36.582,35.998,36.03,35.998z"/>
		</g>
		<g>
			<path d="M40.03,39.998c-0.553,0-1.005-0.447-1.005-1s0.442-1,0.994-1h0.011c0.552,0,1,0.447,1,1S40.582,39.998,40.03,39.998z"/>
		</g>
		<g>
			<path d="M44.03,43.998c-0.553,0-1.005-0.447-1.005-1s0.442-1,0.994-1h0.011c0.552,0,1,0.447,1,1S44.582,43.998,44.03,43.998z"/>
		</g>
		<g>
			<path d="M40.03,31.998c-0.553,0-1.005-0.447-1.005-1s0.442-1,0.994-1h0.011c0.552,0,1,0.447,1,1S40.582,31.998,40.03,31.998z"/>
		</g>
		<g>
			<path d="M44.03,35.998c-0.553,0-1.005-0.447-1.005-1s0.442-1,0.994-1h0.011c0.552,0,1,0.447,1,1S44.582,35.998,44.03,35.998z"/>
		</g>
	</g>
</g>
</svg>
