<?xml version="1.0" encoding="utf-8"?>
<!-- Generator: Adobe Illustrator 24.0.0, SVG Export Plug-In . SVG Version: 6.00 Build 0)  -->
<svg version="1.1" id="Layer_1" xmlns="http://www.w3.org/2000/svg" xmlns:xlink="http://www.w3.org/1999/xlink" x="0px" y="0px"
	 viewBox="0 0 256 256" enable-background="new 0 0 256 256" xml:space="preserve">
<g>
</g>
<g>
	<path fill="#7C7B7A" d="M35.12,242.254c-1.66,4.49,1.67,9.26,6.46,9.26c2.88,0,5.45-1.79,6.45-4.49l9.6-26.01H42.97L35.12,242.254z
		"/>
	<path fill="#7C7B7A" d="M216.85,242.254l-7.84-21.24h-14.67l9.61,26.01c1,2.7,3.57,4.49,6.45,4.49
		C215.19,251.514,218.51,246.744,216.85,242.254z"/>
	<path fill="#72C2E9" d="M242.322,221.016H13.679c-2.761,0-5-2.239-5-5V73.856c0-2.761,2.239-5,5-5h228.643c2.761,0,5,2.239,5,5
		v142.16C247.322,218.778,245.083,221.016,242.322,221.016z"/>
	
		<rect x="65.392" y="38.004" transform="matrix(-1.836970e-16 1 -1 -1.836970e-16 272.9366 16.9359)" fill="#F2E1D6" width="125.218" height="213.865"/>
	<path fill="#7C7B7A" d="M152.739,68.856h-53.5v-8.387c0-8.284,6.716-15,15-15h23.5c8.284,0,15,6.716,15,15V68.856z"/>
	<path fill="#FFFFFF" d="M223,198.744H48.068c-1.381,0-2.5-1.119-2.5-2.5s1.119-2.5,2.5-2.5H220.5V94.464c0-1.381,1.119-2.5,2.5-2.5
		s2.5,1.119,2.5,2.5v101.779C225.5,197.625,224.381,198.744,223,198.744z M38.068,198.744h-5c-1.381,0-2.5-1.119-2.5-2.5
		s1.119-2.5,2.5-2.5h5c1.381,0,2.5,1.119,2.5,2.5S39.448,198.744,38.068,198.744z"/>
	<circle fill="#FEB69F" cx="75.442" cy="123.432" r="20.058"/>
	<path fill="#EDC21D" d="M105.225,186.499H45.658v-13.226c0-16.449,13.334-29.783,29.783-29.783h0
		c16.449,0,29.783,13.334,29.783,29.783V186.499z"/>
	<path fill="#F8E5B0" d="M96.691,180.465c-1.381,0-2.5-1.119-2.5-2.5c0-5,0.061-5.818-0.236-7.667
		c-0.218-1.363,0.71-2.646,2.073-2.864c1.364-0.22,2.645,0.71,2.864,2.073c0.372,2.327,0.298,3.521,0.298,8.458
		C99.191,179.346,98.072,180.465,96.691,180.465z M90.591,162.238c-3.53-4.831-9.194-7.715-15.15-7.715c-1.381,0-2.5-1.119-2.5-2.5
		s1.119-2.5,2.5-2.5c7.546,0,14.718,3.65,19.187,9.764c0.814,1.115,0.571,2.68-0.543,3.494
		C92.973,163.593,91.407,163.354,90.591,162.238z"/>
	<circle fill="#FEB69F" cx="128" cy="141.284" r="15.339"/>
	<path fill="#8B72E9" d="M150.776,186.499h-45.551v-7.1c0-12.579,10.197-22.776,22.776-22.776h0
		c12.579,0,22.776,10.197,22.776,22.776V186.499z"/>
	<path fill="#B8A4FF" d="M142.243,181.899c-1.381,0-2.5-1.119-2.5-2.5c0-1.212-0.184-2.406-0.547-3.549
		c-0.418-1.315,0.31-2.722,1.625-3.14c1.318-0.418,2.722,0.311,3.14,1.626c0.417,1.312,0.782,3.026,0.782,5.063
		C144.743,180.78,143.624,181.899,142.243,181.899z M134.248,169.46c-1.871-1.181-4.031-1.805-6.248-1.805
		c-1.381,0-2.5-1.119-2.5-2.5s1.119-2.5,2.5-2.5c3.163,0,6.246,0.891,8.917,2.576c1.167,0.737,1.517,2.281,0.78,3.448
		C136.959,169.851,135.412,170.195,134.248,169.46z"/>
	<circle fill="#FEB69F" cx="180.559" cy="123.432" r="20.058"/>
	<path fill="#FB5E3D" d="M210.342,186.499h-59.566v-13.226c0-16.449,13.334-29.783,29.783-29.783h0
		c16.449,0,29.783,13.334,29.783,29.783V186.499z"/>
	<path fill="#FFCBC3" d="M201.809,180.465c-1.381,0-2.5-1.119-2.5-2.5c0-5,0.061-5.818-0.236-7.667
		c-0.218-1.363,0.71-2.646,2.073-2.864c1.363-0.22,2.646,0.71,2.864,2.073c0.372,2.327,0.298,3.521,0.298,8.458
		C204.309,179.346,203.19,180.465,201.809,180.465z M195.709,162.238c-3.53-4.831-9.194-7.715-15.15-7.715
		c-1.381,0-2.5-1.119-2.5-2.5s1.119-2.5,2.5-2.5c7.546,0,14.718,3.65,19.187,9.764c0.814,1.115,0.571,2.68-0.543,3.494
		C198.091,163.593,196.525,163.354,195.709,162.238z"/>
	<circle cx="92.32" cy="221.011" r="2.5"/>
	<path d="M6.18,73.851v142.16c0,4.141,3.36,7.5,7.5,7.5h25.702l-6.607,17.876c-2.26,6.109,2.275,12.627,8.805,12.627
		c3.904,0,7.438-2.46,8.795-6.125l8.998-24.378H82.32c1.38,0,2.5-1.12,2.5-2.5c0-1.37-1.12-2.5-2.5-2.5H13.68
		c-1.38,0-2.5-1.12-2.5-2.5V73.851c0-1.369,1.12-2.489,2.5-2.5c1.349,0,226.567,0,228.64,0c1.38,0.011,2.5,1.131,2.5,2.5v142.16
		c0,1.38-1.12,2.5-2.5,2.5h-140c-1.38,0-2.5,1.13-2.5,2.5c0,1.38,1.12,2.5,2.5,2.5h90.277l9.009,24.381
		c1.356,3.662,4.89,6.122,8.794,6.122c6.52,0,11.056-6.508,8.795-12.626l-6.599-17.877h29.724c4.14,0,7.5-3.359,7.5-7.5V73.851
		c0-4.13-3.36-7.489-7.5-7.5h-87.082v-5.882c0-9.649-7.851-17.5-17.5-17.5h-0.647L158.65,5.721c0.69-1.189,0.28-2.729-0.91-3.42
		c-1.16-0.67-2.75-0.229-3.41,0.91l-23.021,39.758h-10.648L97.65,3.211c-0.66-1.14-2.26-1.58-3.41-0.91
		c-1.229,0.72-1.595,2.234-0.92,3.42l21.568,37.248h-0.649c-9.649,0-17.5,7.851-17.5,17.5v5.882H13.68
		C9.54,66.362,6.18,69.721,6.18,73.851z M45.686,246.156c-0.633,1.71-2.283,2.858-4.105,2.858c-3.059,0-5.172-3.037-4.115-5.894
		l7.246-19.606h9.331L45.686,246.156z M210.4,249.014c-1.822,0-3.472-1.148-4.104-2.856l-8.367-22.644h9.339l7.238,19.607
		C215.564,245.983,213.452,249.014,210.4,249.014z M101.739,60.469c0-6.893,5.607-12.5,12.5-12.5c10.899,0,12.505,0,23.5,0
		c6.893,0,12.5,5.607,12.5,12.5v5.882h-48.5V60.469z"/>
	<path d="M195.85,79.832H21.07c-1.394,0-2.5,1.114-2.5,2.5v125.22c0,1.36,1.1,2.49,2.5,2.49h213.86c1.401,0,2.5-1.13,2.5-2.49
		V82.332c0-1.388-1.108-2.5-2.5-2.5h-19.08c-1.38,0-2.5,1.12-2.5,2.5c0,1.37,1.12,2.5,2.5,2.5c0.01,0,0.01,0,0.02-0.01h16.56v120.22
		H23.57V84.822h172.28c1.38,0,2.5-1.12,2.5-2.49C198.35,80.952,197.23,79.832,195.85,79.832z"/>
	<path d="M205.85,84.822c1.38,0,2.5-1.12,2.5-2.49c0-1.38-1.12-2.5-2.5-2.5c-1.38,0-2.5,1.12-2.5,2.5
		C203.35,83.702,204.47,84.822,205.85,84.822z"/>
	<path d="M86.02,120.931c-1.38,0-2.5,1.12-2.5,2.5c-0.01,4.45-3.63,8.07-8.08,8.08c-4.44-0.01-8.07-3.63-8.08-8.08
		c0-1.38-1.12-2.5-2.5-2.5c-1.37,0-2.49,1.12-2.49,2.5c0,7.21,5.87,13.07,13.07,13.08c7.21-0.01,13.07-5.87,13.08-13.08
		C88.52,122.051,87.4,120.931,86.02,120.931z"/>
	<path d="M134.24,138.782c-1.38,0-2.5,1.12-2.5,2.5c-0.01,2.06-1.68,3.729-3.74,3.74c-2.06-0.011-3.73-1.681-3.73-3.74
		c0-1.38-1.13-2.5-2.5-2.5c-1.38,0-2.5,1.12-2.5,2.5c0,4.81,3.92,8.729,8.73,8.74c4.81-0.011,8.73-3.931,8.73-8.74
		C136.73,139.902,135.61,138.782,134.24,138.782z"/>
	<path d="M189.95,120.931c-1.37,0-2.49,1.11-2.5,2.49v0.01c-0.01,3.79-3.1,6.88-6.89,6.891c-3.79-0.011-6.89-3.101-6.89-6.891
		c0-1.38-1.13-2.5-2.5-2.5c-1.38,0-2.5,1.12-2.5,2.5c0,6.551,5.34,11.891,11.89,11.891c6.55,0,11.89-5.34,11.89-11.891
		C192.45,122.051,191.33,120.931,189.95,120.931z"/>
	<path d="M203.12,123.431c0-12.439-10.12-22.56-22.56-22.56c-12.39,0-22.56,10.023-22.56,22.56c0,8.362,4.576,15.671,11.352,19.567
		c-9.957,3.698-17.604,12.174-20.154,22.628c-2.767-4.241-6.708-7.546-11.316-9.503c4.793-3.201,7.957-8.656,7.957-14.842
		c0-9.83-8-17.84-17.84-17.84c-9.83,0-17.84,8.01-17.84,17.84c0,6.185,3.168,11.64,7.96,14.841
		c-4.668,1.982-8.583,5.316-11.309,9.49c-2.599-10.715-10.442-19.031-20.151-22.621C93.429,139.093,98,131.789,98,123.431
		c0-12.439-10.12-22.56-22.56-22.56s-22.55,10.12-22.56,22.56c0.007,8.358,4.576,15.663,11.343,19.561
		c-12.186,4.505-21.064,16.253-21.064,30.28v13.229c0,1.38,1.12,2.5,2.5,2.5c1.38,0,2.5-1.12,2.5-2.5v-13.229
		c0.03-15.021,12.26-27.261,27.28-27.28c15.02,0.02,27.26,12.26,27.29,27.28c0,7.451,0,5.821,0,13.229c0,1.38,1.12,2.5,2.49,2.5
		c1.38,0,2.51-1.12,2.51-2.5v-7.1c0.01-11.16,9.11-20.261,20.27-20.28c11.135,0.02,20.206,9.081,20.276,20.207v7.17
		c0,1.388,1.13,2.503,2.504,2.503c1.37,0,2.5-1.12,2.5-2.5c0-7.132-0.004-6.095-0.004-13.229c0-14.94,12.12-27.282,27.322-27.282
		c15.026,0.021,27.244,12.251,27.244,27.282v13.226c0,1.381,1.119,2.5,2.5,2.5s2.5-1.119,2.5-2.5v-13.226
		c0-13.862-8.783-25.708-21.075-30.274C198.543,139.103,203.12,131.794,203.12,123.431z M57.88,123.431
		c0.02-9.67,7.9-17.54,17.56-17.56c9.66,0.02,17.54,7.89,17.56,17.56c-0.02,9.66-7.9,17.54-17.56,17.561
		C65.78,140.971,57.9,133.091,57.88,123.431z M115.16,141.282c0.01-7.061,5.77-12.82,12.84-12.84c7.07,0.02,12.83,5.779,12.84,12.84
		c-0.01,7.069-5.77,12.83-12.84,12.84C120.93,154.112,115.17,148.351,115.16,141.282z M180.585,140.991c0,0-0.052,0-0.05,0
		c-9.648-0.034-17.515-7.907-17.535-17.559c0.02-9.67,7.9-17.54,17.56-17.56c9.66,0.02,17.54,7.89,17.56,17.56
		C198.1,133.083,190.233,140.956,180.585,140.991z"/>
</g>
</svg>
