<?xml version="1.0" encoding="utf-8"?>
<!-- Generator: Adobe Illustrator 24.0.0, SVG Export Plug-In . SVG Version: 6.00 Build 0)  -->
<svg version="1.1" xmlns="http://www.w3.org/2000/svg" xmlns:xlink="http://www.w3.org/1999/xlink" x="0px" y="0px"
	 viewBox="0 0 256 256" style="enable-background:new 0 0 256 256;" xml:space="preserve">
<style type="text/css">
	.st0{fill:#F98FA6;}
	.st1{fill:#FC657E;}
	.st2{fill:#DAE6F1;}
	.st3{fill:#5290DB;}
	.st4{fill:#FCDD86;}
	.st5{fill:#F5C84C;}
	.st6{fill:#87D147;}
	.st7{fill:#70D6F9;}
	.st8{fill:#EDF4FC;}
	.st9{fill:#9BE5F9;}
	.st10{fill:#B2E26D;}
	.st11{fill:#F9C1A8;}
	.st12{fill:#414344;}
	.st13{fill:#E1FBFF;}
	.st14{fill:#FFE3EC;}
	.st15{fill:#FCBECF;}
	.st16{fill:#EF4460;}
	.st17{fill:#80C2F9;}
	.st18{fill:#3A70BF;}
	.st19{fill:#FCA265;}
	.st20{fill:#5B5D60;}
	.st21{fill:#818182;}
	.st22{fill:#C7D7E5;}
	.st23{fill:#F9D0B4;}
	.st24{fill:#AA6F59;}
	.st25{fill:#D1856D;}
	.st26{fill:#FCC29A;}
	.st27{fill:#29589F;}
	.st28{fill:#F7B386;}
	.st29{fill:#FC8C48;}
	.st30{fill:#FFF0CC;}
	.st31{fill:#57AF12;}
	.st32{fill:#3CAADC;}
	.st33{fill:#EDB311;}
	.st34{fill:#231F20;}
</style>
<g id="Layer_1">
</g>
<g id="Layer_2">
</g>
<g id="Layer_3">
</g>
<g id="Layer_4">
</g>
<g id="Layer_5">
</g>
<g id="Layer_6">
</g>
<g id="Layer_7">
</g>
<g id="Layer_8">
</g>
<g id="Layer_9">
</g>
<g id="Layer_10">
</g>
<g id="Layer_11">
</g>
<g id="Layer_12">
</g>
<g id="Layer_13">
</g>
<g id="Layer_14">
</g>
<g id="Layer_15">
</g>
<g id="Layer_16">
</g>
<g id="Layer_17">
</g>
<g id="Layer_18">
</g>
<g id="Layer_19">
</g>
<g id="Layer_20">
</g>
<g id="Layer_21">
</g>
<g id="Layer_22">
</g>
<g id="Layer_23">
</g>
<g id="Layer_24">
</g>
<g id="Layer_25">
</g>
<g id="Layer_26">
</g>
<g id="Layer_27">
</g>
<g id="Layer_28">
</g>
<g id="Layer_29">
</g>
<g id="Layer_30">
</g>
<g id="Layer_31">
</g>
<g id="Layer_32">
</g>
<g id="Layer_33">
</g>
<g id="Layer_34">
</g>
<g id="Layer_35">
</g>
<g id="Layer_36">
</g>
<g id="Layer_37">
</g>
<g id="Layer_38">
</g>
<g id="Layer_39">
</g>
<g id="Layer_40">
	<g>
		<g>
			<g>
				<path class="st3" d="M124.968,96.25H45.314c-5.944,0-10.807,4.863-10.807,10.807v125.886c0,5.944,4.863,10.807,10.807,10.807
					h79.653c5.944,0,10.807-4.863,10.807-10.807V107.057C135.775,101.113,130.912,96.25,124.968,96.25z"/>
			</g>
		</g>
		<g>
			<g>
				<path class="st8" d="M123.08,86.5H47.203c-3.058,0-5.56,2.502-5.56,5.56v4.85c1.149-0.419,2.382-0.66,3.672-0.66h79.653
					c1.29,0,2.523,0.241,3.672,0.66v-4.85C128.639,89.002,126.138,86.5,123.08,86.5z"/>
			</g>
		</g>
		<g>
			<g>
				<path class="st8" d="M124.968,243.75H45.314c-1.29,0-2.523-0.241-3.672-0.66v4.85c0,3.058,2.502,5.56,5.56,5.56h75.877
					c3.058,0,5.56-2.502,5.56-5.56v-4.85C127.49,243.509,126.257,243.75,124.968,243.75z"/>
			</g>
		</g>
		<g>
			<g>
				<path class="st8" d="M184.898,20.5h-70.513c-3.158,0-5.742,2.584-5.742,5.742v4.668c1.149-0.419,2.382-0.66,3.672-0.66h74.653
					c1.29,0,2.523,0.241,3.672,0.66v-4.668C190.639,23.084,188.056,20.5,184.898,20.5z"/>
			</g>
		</g>
		<g>
			<g>
				<path class="st8" d="M186.968,243.75h-58.328v4.19c0,3.058-2.502,5.56-5.56,5.56h61.818c3.158,0,5.742-2.584,5.742-5.742v-4.668
					C189.49,243.509,188.257,243.75,186.968,243.75z"/>
			</g>
		</g>
		<g>
			<g>
				<path class="st0" d="M186.968,30.25h-74.653c-5.944,0-10.807,4.863-10.807,10.807V86.5h21.572c3.058,0,5.56,2.502,5.56,5.56
					v4.85c4.148,1.513,7.135,5.493,7.135,10.147v125.886c0,4.654-2.988,8.634-7.135,10.147v0.66h58.328
					c5.944,0,10.807-4.863,10.807-10.807V41.057C197.775,35.113,192.912,30.25,186.968,30.25z"/>
			</g>
		</g>
		<g>
			<g>
				<path class="st1" d="M101.508,44.67V86.5h21.572c3.058,0,5.56,2.502,5.56,5.56v4.85c4.148,1.513,7.135,5.493,7.135,10.147
					v59.562l62,62v-87.681L101.508,44.67z"/>
			</g>
		</g>
		<g>
			<g>
				<path class="st5" d="M101.179,169.63H67.141c-1.49,0-2.396-1.64-1.603-2.901l44.297-70.479H45.314
					c-5.944,0-10.807,4.863-10.807,10.807v125.886c0,5.944,4.863,10.807,10.807,10.807h11.669l45.818-71.251
					C103.56,171.237,102.651,169.63,101.179,169.63z"/>
			</g>
		</g>
		<g>
			<g>
				<path class="st4" d="M101.179,169.63H67.141c-1.49,0-2.396-1.64-1.603-2.901l44.297-70.479H61.172l-26.664,73.155V185.5h40.134
					l-28.663,58.25h11.005l45.818-71.251C103.56,171.237,102.651,169.63,101.179,169.63z"/>
			</g>
		</g>
		<g>
			<g>
				<g>
					<path d="M124.968,93.75H45.314c-7.337,0-13.307,5.969-13.307,13.307v125.887c0,7.337,5.97,13.307,13.307,13.307h79.653
						c7.337,0,13.307-5.969,13.307-13.307V107.057C138.274,99.719,132.305,93.75,124.968,93.75z M133.274,232.943
						c0,4.58-3.727,8.307-8.307,8.307H45.314c-4.58,0-8.307-3.727-8.307-8.307V107.057c0-4.58,3.727-8.307,8.307-8.307h79.653
						c4.58,0,8.307,3.727,8.307,8.307V232.943z"/>
				</g>
			</g>
		</g>
		<g>
			<g>
				<path d="M123.08,84H47.202c-4.444,0-8.06,3.616-8.06,8.06v3.898c0,1.381,1.119,2.5,2.5,2.5s2.5-1.119,2.5-2.5V92.06
					c0-1.687,1.372-3.06,3.06-3.06h75.878c1.688,0,3.06,1.373,3.06,3.06v4.19c0,1.381,1.119,2.5,2.5,2.5s2.5-1.119,2.5-2.5v-4.19
					C131.14,87.616,127.524,84,123.08,84z"/>
			</g>
		</g>
		<g>
			<g>
				<path d="M128.64,241.25c-1.381,0-2.5,1.119-2.5,2.5v4.19c0,1.687-1.372,3.06-3.06,3.06H47.202c-1.688,0-3.06-1.373-3.06-3.06
					v-4.19c0-1.381-1.119-2.5-2.5-2.5s-2.5,1.119-2.5,2.5v4.19c0,4.444,3.615,8.06,8.06,8.06h75.878c4.444,0,8.06-3.616,8.06-8.06
					v-4.19C131.14,242.369,130.021,241.25,128.64,241.25z"/>
			</g>
		</g>
		<g>
			<g>
				<path d="M184.897,18h-70.513c-4.545,0-8.242,3.697-8.242,8.242v4.134c0,1.381,1.119,2.5,2.5,2.5s2.5-1.119,2.5-2.5v-4.134
					c0-1.788,1.454-3.242,3.242-3.242h70.513c1.788,0,3.242,1.454,3.242,3.242v4.196c0,1.381,1.119,2.5,2.5,2.5s2.5-1.119,2.5-2.5
					v-4.196C193.14,21.697,189.442,18,184.897,18z"/>
			</g>
		</g>
		<g>
			<g>
				<path d="M190.64,241.25c-1.381,0-2.5,1.119-2.5,2.5v4.008c0,1.788-1.454,3.242-3.242,3.242H123.08c-1.381,0-2.5,1.119-2.5,2.5
					s1.119,2.5,2.5,2.5h61.817c4.545,0,8.242-3.697,8.242-8.242v-4.008C193.14,242.37,192.021,241.25,190.64,241.25z"/>
			</g>
		</g>
		<g>
			<g>
				<path d="M186.968,27.75h-74.653c-7.337,0-13.307,5.97-13.307,13.307v44.381c0,1.381,1.119,2.5,2.5,2.5s2.5-1.119,2.5-2.5V41.057
					c0-4.581,3.727-8.307,8.307-8.307h74.653c4.58,0,8.307,3.727,8.307,8.307v191.886c0,4.58-3.727,8.307-8.307,8.307H129.25
					c-1.381,0-2.5,1.119-2.5,2.5s1.119,2.5,2.5,2.5h57.718c7.337,0,13.307-5.969,13.307-13.307V41.057
					C200.274,33.72,194.305,27.75,186.968,27.75z"/>
			</g>
		</g>
		<g>
			<g>
				<path d="M179.641,46h-11c-1.381,0-2.5,1.119-2.5,2.5s1.119,2.5,2.5,2.5h11c1.381,0,2.5-1.119,2.5-2.5S181.021,46,179.641,46z"/>
			</g>
		</g>
		<g>
			<g>
				<path d="M179.641,56h-11c-1.381,0-2.5,1.119-2.5,2.5s1.119,2.5,2.5,2.5h11c1.381,0,2.5-1.119,2.5-2.5S181.021,56,179.641,56z"/>
			</g>
		</g>
		<g>
			<g>
				<path d="M115.641,216h-11c-1.381,0-2.5,1.119-2.5,2.5s1.119,2.5,2.5,2.5h11c1.381,0,2.5-1.119,2.5-2.5S117.021,216,115.641,216z
					"/>
			</g>
		</g>
		<g>
			<g>
				<path d="M115.641,226h-11c-1.381,0-2.5,1.119-2.5,2.5s1.119,2.5,2.5,2.5h11c1.381,0,2.5-1.119,2.5-2.5S117.021,226,115.641,226z
					"/>
			</g>
		</g>
		<g>
			<g>
				<path d="M198.893,138.521l-95.064-95.064c-0.977-0.977-2.559-0.977-3.535,0c-0.977,0.976-0.977,2.559,0,3.535l95.064,95.064
					c0.488,0.488,1.128,0.732,1.768,0.732s1.279-0.244,1.768-0.732C199.869,141.08,199.869,139.497,198.893,138.521z"/>
			</g>
		</g>
		<g>
			<g>
				<path d="M198.753,226.062l-60.677-60.677c-0.977-0.977-2.559-0.977-3.535,0c-0.977,0.976-0.977,2.559,0,3.535l60.677,60.677
					c0.488,0.488,1.128,0.732,1.768,0.732s1.279-0.244,1.768-0.732C199.729,228.621,199.729,227.038,198.753,226.062z"/>
			</g>
		</g>
		<g>
			<g>
				<path d="M110.751,94.793c-1.168-0.735-2.712-0.384-3.446,0.786l-43.883,69.819c-0.852,1.354-0.899,3.063-0.127,4.463
					c0.773,1.4,2.247,2.269,3.847,2.269h32.925l-44.762,69.608c-0.747,1.161-0.411,2.708,0.75,3.455
					c0.419,0.269,0.887,0.398,1.351,0.398c0.822,0,1.627-0.405,2.104-1.148l45.435-70.655c0.814-1.354,0.837-3.051,0.059-4.427
					s-2.243-2.23-3.824-2.23h-32.94l43.299-68.89C112.272,97.071,111.92,95.528,110.751,94.793z"/>
			</g>
		</g>
		<g>
			<g>
				<path d="M76.763,184.179c-0.456-0.733-1.259-1.179-2.122-1.179H35.458c-1.381,0-2.5,1.119-2.5,2.5s1.119,2.5,2.5,2.5h35.166
					l-26.563,53.986c-0.609,1.239-0.1,2.737,1.14,3.347c0.354,0.175,0.731,0.257,1.102,0.257c0.923,0,1.811-0.513,2.245-1.397
					l28.337-57.589C77.265,185.829,77.22,184.912,76.763,184.179z"/>
			</g>
		</g>
		<g>
			<g>
				<path d="M61.787,94.562c-1.299-0.473-2.732,0.196-3.205,1.493l-26.306,72.172c-0.473,1.297,0.195,2.732,1.492,3.205
					c0.283,0.103,0.572,0.152,0.856,0.152c1.021,0,1.979-0.63,2.349-1.645l26.306-72.172C63.752,96.47,63.084,95.035,61.787,94.562z
					"/>
			</g>
		</g>
		<g>
			<g>
				<path class="st5" d="M94.124,20.697c-4.498-0.838-8.043-4.31-8.898-8.717c-0.043-0.221-0.352-0.221-0.395,0
					c-0.855,4.406-4.4,7.879-8.898,8.717c-0.226,0.042-0.226,0.345,0,0.387c4.498,0.838,8.043,4.31,8.898,8.717
					c0.043,0.221,0.352,0.221,0.395,0c0.855-4.406,4.4-7.879,8.898-8.717C94.35,21.042,94.35,20.739,94.124,20.697z"/>
			</g>
		</g>
		<g>
			<g>
				<path class="st1" d="M218.022,93.877c-2.469-0.46-4.416-2.367-4.885-4.786c-0.024-0.121-0.193-0.121-0.217,0
					c-0.469,2.419-2.416,4.326-4.885,4.786c-0.124,0.023-0.124,0.189,0,0.212c2.47,0.46,4.416,2.367,4.885,4.786
					c0.024,0.121,0.193,0.121,0.217,0c0.469-2.419,2.416-4.326,4.885-4.786C218.147,94.066,218.147,93.9,218.022,93.877z"/>
			</g>
		</g>
		<g>
			<g>
				<path class="st7" d="M220.835,164.302h-2.329v-2.33c0-1.744-1.413-3.157-3.157-3.157s-3.157,1.413-3.157,3.157v2.33h-2.33
					c-1.744,0-3.157,1.413-3.157,3.157s1.413,3.157,3.157,3.157h2.33v2.33c0,1.744,1.413,3.157,3.157,3.157s3.157-1.413,3.157-3.157
					v-2.33h2.329c1.744,0,3.157-1.413,3.157-3.157S222.579,164.302,220.835,164.302z"/>
			</g>
		</g>
		<g>
			<g>
				<path class="st10" d="M106.14,0c-1.865,0-3.377,1.512-3.377,3.377s1.512,3.377,3.377,3.377c1.865,0,3.377-1.512,3.377-3.377
					S108.005,0,106.14,0z"/>
			</g>
		</g>
		<g>
			<g>
				<path class="st5" d="M210.14,189c-1.865,0-3.377,1.512-3.377,3.377s1.512,3.377,3.377,3.377c1.865,0,3.377-1.512,3.377-3.377
					S212.005,189,210.14,189z"/>
			</g>
		</g>
	</g>
</g>
<g id="Layer_41">
</g>
<g id="Layer_42">
</g>
<g id="Layer_43">
</g>
<g id="Layer_44">
</g>
<g id="Layer_45">
</g>
<g id="Layer_46">
</g>
<g id="Layer_47">
</g>
<g id="Layer_48">
</g>
<g id="Layer_49">
</g>
<g id="Layer_50">
</g>
<g id="Layer_51">
</g>
<g id="Layer_52">
</g>
<g id="Layer_53">
</g>
<g id="Layer_54">
</g>
<g id="Layer_55">
</g>
<g id="Layer_56">
</g>
<g id="Layer_57">
</g>
<g id="Layer_58">
</g>
<g id="Layer_59">
</g>
<g id="Layer_60">
</g>
<g id="Layer_61">
</g>
<g id="Layer_62">
</g>
<g id="Layer_63">
</g>
<g id="Layer_64">
</g>
<g id="Layer_65">
</g>
<g id="Layer_66">
</g>
<g id="Layer_67">
</g>
<g id="Layer_68">
</g>
<g id="Layer_69">
</g>
<g id="Layer_70">
</g>
<g id="Layer_71">
</g>
<g id="Layer_72">
</g>
<g id="Layer_73">
</g>
<g id="Layer_74">
</g>
<g id="Layer_75">
</g>
<g id="Layer_76">
</g>
<g id="Layer_77">
</g>
<g id="Layer_78">
</g>
<g id="Layer_79">
</g>
<g id="Layer_80">
</g>
<g id="Layer_81">
</g>
<g id="Layer_82">
</g>
<g id="Layer_83">
</g>
<g id="Layer_84">
</g>
<g id="Layer_85">
</g>
</svg>
