<?xml version="1.0" encoding="iso-8859-1"?>
<!-- Generator: Adobe Illustrator 22.0.1, SVG Export Plug-In . SVG Version: 6.00 Build 0)  -->
<svg version="1.1" id="Layer_1" xmlns="http://www.w3.org/2000/svg" xmlns:xlink="http://www.w3.org/1999/xlink" x="0px" y="0px"
	 viewBox="0 0 2048 2048" style="enable-background:new 0 0 2048 2048;" xml:space="preserve">
<g>
	<path style="fill:#CFD8DD;" d="M1039.71,1792h-31.419c-268.952,0-486.981-218.029-486.981-486.981V682.991
		C521.309,447.17,712.479,256,948.3,256h151.4c235.821,0,426.991,191.17,426.991,426.991v622.028
		C1526.691,1573.971,1308.662,1792,1039.71,1792z"/>
	<path style="fill:#465A65;" d="M1099.7,256h-13.77H962.07H948.3c-235.82,0-426.99,191.17-426.99,426.99v13.77v64.3
		c149.15,93.42,313.18,142.37,477.92,146.83c16.5,0.45,33.03,0.45,49.54,0c164.74-4.46,328.77-53.41,477.92-146.84v-64.29v-13.77
		C1526.69,447.17,1335.52,256,1099.7,256z"/>
	<g>
		<g>
			<path style="fill:#CFD8DD;" d="M1048.774,256v169.29c0,1.301-0.103,2.581-0.299,3.819c-1.838,11.871-12.098,20.955-24.475,20.955
				c-12.377,0-22.637-9.084-24.475-20.955c-0.196-1.239-0.299-2.519-0.299-3.819V256H1048.774z"/>
		</g>
	</g>
	<g>
		<g>
			<path style="fill:#CFD8DD;" d="M1024,932.666c-13.682,0-24.774-11.092-24.774-24.774v-169.29
				c0-13.682,11.092-24.774,24.774-24.774c13.682,0,24.774,11.092,24.774,24.774v169.29
				C1048.774,921.574,1037.682,932.666,1024,932.666z"/>
		</g>
	</g>
	<path style="fill:#CFD8DD;" d="M1026.5,738.601h-5c-42.802,0-77.5-34.698-77.5-77.5V502.79c0-42.802,34.698-77.5,77.5-77.5h5
		c42.802,0,77.5,34.698,77.5,77.5v158.311C1104,703.903,1069.302,738.601,1026.5,738.601z"/>
</g>
</svg>
