<svg xmlns="http://www.w3.org/2000/svg" width="48" height="48" viewBox="0 0 48 48">
  <g>
    <path d="M25.875,43.515V1.875a1.875,1.875,0,0,0-3.75,0v41.64H3.75V48h40.5V43.515Z" fill="#525c6b"/>
    <g>
      <g>
        <g>
          <path d="M44.86,37.235H3.14a3.141,3.141,0,0,0,0,6.281H44.86a3.141,3.141,0,0,0,0-6.281Z" fill="#f87670"/>
          <path d="M14.39,24.675H33.61a3.141,3.141,0,0,0,0-6.282H14.39a3.141,3.141,0,0,0,0,6.282Z" fill="#f87670"/>
        </g>
        <g>
          <path d="M41.11,30.954H6.89a3.141,3.141,0,0,0,0,6.282H41.11a3.141,3.141,0,0,0,0-6.282Z" fill="#fddc85"/>
          <path d="M18.14,18.393H29.86a3.141,3.141,0,0,0,0-6.281H18.14a3.141,3.141,0,0,0,0,6.281Z" fill="#fddc85"/>
        </g>
        <g>
          <path d="M37.36,24.675H10.64a3.14,3.14,0,1,0,0,6.28H37.36a3.14,3.14,0,1,0,0-6.28Z" fill="#79ccb8"/>
          <path d="M21.89,12.113h4.22a3.14,3.14,0,1,0,0-6.28H21.89a3.14,3.14,0,1,0,0,6.28Z" fill="#79ccb8"/>
        </g>
      </g>
      <g>
        <g>
          <path d="M41.975,38.5H27.028a1.125,1.125,0,1,0,0,2.25H41.975a1.125,1.125,0,0,0,0-2.25Z" fill="#db5743"/>
          <path d="M32.318,20.784a1.125,1.125,0,0,0-1.125-1.125H24.307a1.125,1.125,0,1,0,0,2.25h6.886A1.125,1.125,0,0,0,32.318,20.784Z" fill="#db5743"/>
        </g>
        <g>
          <path d="M38.38,32.22H26.121a1.125,1.125,0,1,0,0,2.25H38.38a1.125,1.125,0,0,0,0-2.25Z" fill="#ffbd66"/>
          <path d="M29.475,14.5a1.125,1.125,0,0,0-1.125-1.125h-4.2a1.125,1.125,0,0,0,0,2.25h4.2A1.125,1.125,0,0,0,29.475,14.5Z" fill="#ffbd66"/>
        </g>
        <g>
          <path d="M34.787,25.94H25.214a1.125,1.125,0,0,0,0,2.25h9.573a1.125,1.125,0,0,0,0-2.25Z" fill="#3daa9d"/>
          <path d="M26.631,8.222A1.125,1.125,0,0,0,25.506,7.1H23.994a1.125,1.125,0,1,0,0,2.25h1.512A1.125,1.125,0,0,0,26.631,8.222Z" fill="#3daa9d"/>
        </g>
      </g>
    </g>
  </g>
</svg>
